<mxfile host="65bd71144e">
    <diagram id="pjzsyKu3NBpPR-54h08p" name="Page-1">
        <mxGraphModel dx="2702" dy="2285" grid="1" gridSize="10" guides="1" tooltips="1" connect="1" arrows="1" fold="1" page="1" pageScale="1" pageWidth="827" pageHeight="1169" math="0" shadow="0">
            <root>
                <mxCell id="0"/>
                <mxCell id="1" parent="0"/>
                <mxCell id="OTUqCdPUJppTRiebAdAl-3" value="" style="rounded=0;whiteSpace=wrap;html=1;fillColor=#222222;strokeColor=#f68712;shadow=0;glass=0;strokeWidth=3;fontFamily=Source Code Pro;fontSource=https%3A%2F%2Ffonts.googleapis.com%2Fcss%3Ffamily%3DSource%2BCode%2BPro;" parent="1" vertex="1">
                    <mxGeometry x="340" y="-1120" width="1030" height="630" as="geometry"/>
                </mxCell>
                <mxCell id="OTUqCdPUJppTRiebAdAl-6" value="&lt;font style=&quot;font-size: 24px&quot;&gt;Router&lt;/font&gt;" style="text;html=1;strokeColor=none;fillColor=none;align=center;verticalAlign=middle;whiteSpace=wrap;rounded=0;fontFamily=Source Code Pro;fontSource=https%3A%2F%2Ffonts.googleapis.com%2Fcss%3Ffamily%3DSource%2BCode%2BPro;" parent="1" vertex="1">
                    <mxGeometry x="856.25" y="-1100" width="40" height="20" as="geometry"/>
                </mxCell>
                <mxCell id="OTUqCdPUJppTRiebAdAl-53" style="edgeStyle=orthogonalEdgeStyle;rounded=0;orthogonalLoop=1;jettySize=auto;html=1;exitX=1;exitY=0.5;exitDx=0;exitDy=0;entryX=0;entryY=0.5;entryDx=0;entryDy=0;endArrow=none;endFill=0;strokeColor=#5E5E5E;fontFamily=Source Code Pro;fontSource=https%3A%2F%2Ffonts.googleapis.com%2Fcss%3Ffamily%3DSource%2BCode%2BPro;" parent="1" source="OTUqCdPUJppTRiebAdAl-8" target="OTUqCdPUJppTRiebAdAl-51" edge="1">
                    <mxGeometry relative="1" as="geometry"/>
                </mxCell>
                <mxCell id="OTUqCdPUJppTRiebAdAl-85" style="edgeStyle=orthogonalEdgeStyle;rounded=0;orthogonalLoop=1;jettySize=auto;html=1;entryX=0.5;entryY=0;entryDx=0;entryDy=0;fontFamily=Source Code Pro;fontSource=https%3A%2F%2Ffonts.googleapis.com%2Fcss%3Ffamily%3DSource%2BCode%2BPro;endArrow=none;endFill=0;strokeColor=#5E5E5E;" parent="1" source="OTUqCdPUJppTRiebAdAl-8" target="OTUqCdPUJppTRiebAdAl-50" edge="1">
                    <mxGeometry relative="1" as="geometry"/>
                </mxCell>
                <mxCell id="OTUqCdPUJppTRiebAdAl-8" value="App" style="rounded=1;whiteSpace=wrap;html=1;shadow=0;glass=0;strokeColor=#f68712;strokeWidth=1;fontFamily=Source Code Pro;fontSource=https%3A%2F%2Ffonts.googleapis.com%2Fcss%3Ffamily%3DSource%2BCode%2BPro;fillColor=none;" parent="1" vertex="1">
                    <mxGeometry x="837.5" y="-1050" width="75" height="40" as="geometry"/>
                </mxCell>
                <mxCell id="OTUqCdPUJppTRiebAdAl-51" value="&lt;font color=&quot;#7d7d7d&quot; style=&quot;font-size: 12px&quot;&gt;App is the entry of all http request&lt;/font&gt;" style="rounded=1;whiteSpace=wrap;html=1;shadow=0;glass=0;strokeWidth=1;gradientColor=none;strokeColor=#5E5E5E;fillColor=none;fontFamily=Source Code Pro;fontSource=https%3A%2F%2Ffonts.googleapis.com%2Fcss%3Ffamily%3DSource%2BCode%2BPro;absoluteArcSize=1;" parent="1" vertex="1">
                    <mxGeometry x="956.25" y="-1060" width="230" height="60" as="geometry"/>
                </mxCell>
                <mxCell id="OTUqCdPUJppTRiebAdAl-55" value="" style="rounded=1;whiteSpace=wrap;html=1;shadow=0;glass=0;strokeColor=#5E5E5E;strokeWidth=1;fillColor=none;gradientColor=none;fontFamily=Source Code Pro;fontSource=https%3A%2F%2Ffonts.googleapis.com%2Fcss%3Ffamily%3DSource%2BCode%2BPro;arcSize=12;absoluteArcSize=1;" parent="1" vertex="1">
                    <mxGeometry x="642.5" y="-870" width="467.5" height="330" as="geometry"/>
                </mxCell>
                <mxCell id="OTUqCdPUJppTRiebAdAl-50" value="&lt;span style=&quot;color: rgb(86 , 156 , 214) ; font-family: &amp;#34;consolas&amp;#34; , &amp;#34;courier new&amp;#34; , monospace ; font-size: 14px&quot;&gt;new&lt;/span&gt;()" style="shape=hexagon;perimeter=hexagonPerimeter2;whiteSpace=wrap;html=1;fixedSize=1;rounded=0;shadow=0;glass=0;strokeColor=#f68712;strokeWidth=1;gradientColor=none;fontFamily=Source Code Pro;fontSource=https%3A%2F%2Ffonts.googleapis.com%2Fcss%3Ffamily%3DSource%2BCode%2BPro;fillColor=#222;" parent="1" vertex="1">
                    <mxGeometry x="815" y="-885" width="120" height="32" as="geometry"/>
                </mxCell>
                <mxCell id="OTUqCdPUJppTRiebAdAl-56" value="" style="rounded=1;whiteSpace=wrap;html=1;shadow=0;glass=0;strokeColor=#5E5E5E;strokeWidth=1;fillColor=none;gradientColor=none;fontFamily=Source Code Pro;fontSource=https%3A%2F%2Ffonts.googleapis.com%2Fcss%3Ffamily%3DSource%2BCode%2BPro;absoluteArcSize=1;arcSize=12;" parent="1" vertex="1">
                    <mxGeometry x="940" y="-850" width="150" height="290" as="geometry"/>
                </mxCell>
                <mxCell id="OTUqCdPUJppTRiebAdAl-57" value="&lt;font color=&quot;#7d7d7d&quot;&gt;For admin&lt;/font&gt;" style="text;html=1;strokeColor=none;fillColor=none;align=center;verticalAlign=middle;whiteSpace=wrap;rounded=0;shadow=0;glass=0;fontFamily=Source Code Pro;fontSource=https%3A%2F%2Ffonts.googleapis.com%2Fcss%3Ffamily%3DSource%2BCode%2BPro;" parent="1" vertex="1">
                    <mxGeometry x="980" y="-849" width="70" height="20" as="geometry"/>
                </mxCell>
                <mxCell id="OTUqCdPUJppTRiebAdAl-58" value="StatController" style="rounded=1;whiteSpace=wrap;html=1;shadow=0;glass=0;strokeColor=#f68712;strokeWidth=1;fontFamily=Source Code Pro;fontSource=https%3A%2F%2Ffonts.googleapis.com%2Fcss%3Ffamily%3DSource%2BCode%2BPro;fillColor=none;" parent="1" vertex="1">
                    <mxGeometry x="960" y="-819.5" width="110" height="29" as="geometry"/>
                </mxCell>
                <mxCell id="OTUqCdPUJppTRiebAdAl-59" value="LogController" style="rounded=1;whiteSpace=wrap;html=1;shadow=0;glass=0;strokeColor=#f68712;strokeWidth=1;fontFamily=Source Code Pro;fontSource=https%3A%2F%2Ffonts.googleapis.com%2Fcss%3Ffamily%3DSource%2BCode%2BPro;fillColor=none;" parent="1" vertex="1">
                    <mxGeometry x="961.01" y="-714.5" width="112.97" height="29" as="geometry"/>
                </mxCell>
                <mxCell id="OTUqCdPUJppTRiebAdAl-60" value="AnnounceController" style="rounded=1;whiteSpace=wrap;html=1;shadow=0;glass=0;strokeColor=#f68712;strokeWidth=1;fontFamily=Source Code Pro;fontSource=https%3A%2F%2Ffonts.googleapis.com%2Fcss%3Ffamily%3DSource%2BCode%2BPro;fillColor=none;" parent="1" vertex="1">
                    <mxGeometry x="950" y="-608" width="135" height="29" as="geometry"/>
                </mxCell>
                <mxCell id="OTUqCdPUJppTRiebAdAl-62" style="edgeStyle=orthogonalEdgeStyle;rounded=1;orthogonalLoop=1;jettySize=auto;html=1;entryX=0.5;entryY=0;entryDx=0;entryDy=0;endArrow=none;endFill=0;strokeColor=#5E5E5E;fontFamily=Source Code Pro;fontSource=https%3A%2F%2Ffonts.googleapis.com%2Fcss%3Ffamily%3DSource%2BCode%2BPro;" parent="1" source="OTUqCdPUJppTRiebAdAl-61" target="OTUqCdPUJppTRiebAdAl-56" edge="1">
                    <mxGeometry relative="1" as="geometry"/>
                </mxCell>
                <mxCell id="OTUqCdPUJppTRiebAdAl-61" value="&lt;font color=&quot;#7d7d7d&quot; style=&quot;font-size: 12px&quot; data-font-src=&quot;https://fonts.googleapis.com/css?family=Source+Code+Pro&quot;&gt;Admin route are protected by a password&lt;/font&gt;" style="rounded=1;whiteSpace=wrap;html=1;shadow=0;glass=0;strokeWidth=1;gradientColor=none;strokeColor=#5E5E5E;fillColor=none;fontFamily=Source Code Pro;fontSource=https%3A%2F%2Ffonts.googleapis.com%2Fcss%3Ffamily%3DSource%2BCode%2BPro;absoluteArcSize=1;" parent="1" vertex="1">
                    <mxGeometry x="1120" y="-976" width="230" height="60" as="geometry"/>
                </mxCell>
                <mxCell id="OTUqCdPUJppTRiebAdAl-64" style="edgeStyle=orthogonalEdgeStyle;rounded=0;orthogonalLoop=1;jettySize=auto;html=1;entryX=1;entryY=0.5;entryDx=0;entryDy=0;endArrow=none;endFill=0;strokeColor=#5E5E5E;fontFamily=Source Code Pro;fontSource=https%3A%2F%2Ffonts.googleapis.com%2Fcss%3Ffamily%3DSource%2BCode%2BPro;" parent="1" source="OTUqCdPUJppTRiebAdAl-63" target="OTUqCdPUJppTRiebAdAl-58" edge="1">
                    <mxGeometry relative="1" as="geometry"/>
                </mxCell>
                <mxCell id="OTUqCdPUJppTRiebAdAl-63" value="&lt;font color=&quot;#7d7d7d&quot; style=&quot;font-size: 12px&quot;&gt;The StatController will display all lobby, the ram usage and the number of connected websocket&lt;/font&gt;" style="rounded=1;whiteSpace=wrap;html=1;shadow=0;glass=0;strokeWidth=1;gradientColor=none;strokeColor=#5E5E5E;fillColor=none;perimeterSpacing=0;sketch=0;fontFamily=Source Code Pro;fontSource=https%3A%2F%2Ffonts.googleapis.com%2Fcss%3Ffamily%3DSource%2BCode%2BPro;absoluteArcSize=1;" parent="1" vertex="1">
                    <mxGeometry x="1120" y="-852.5" width="230" height="95" as="geometry"/>
                </mxCell>
                <mxCell id="OTUqCdPUJppTRiebAdAl-66" style="edgeStyle=orthogonalEdgeStyle;rounded=0;orthogonalLoop=1;jettySize=auto;html=1;entryX=1;entryY=0.5;entryDx=0;entryDy=0;endArrow=none;endFill=0;strokeColor=#5E5E5E;fontFamily=Source Code Pro;fontSource=https%3A%2F%2Ffonts.googleapis.com%2Fcss%3Ffamily%3DSource%2BCode%2BPro;" parent="1" source="OTUqCdPUJppTRiebAdAl-65" target="OTUqCdPUJppTRiebAdAl-59" edge="1">
                    <mxGeometry relative="1" as="geometry"/>
                </mxCell>
                <mxCell id="OTUqCdPUJppTRiebAdAl-65" value="&lt;font color=&quot;#7d7d7d&quot; style=&quot;font-size: 12px&quot;&gt;The LogController give access to the file system where you can consult log of each lobby in case of bug&lt;/font&gt;" style="rounded=1;whiteSpace=wrap;html=1;shadow=0;glass=0;strokeWidth=1;gradientColor=none;strokeColor=#5E5E5E;fillColor=none;fontFamily=Source Code Pro;fontSource=https%3A%2F%2Ffonts.googleapis.com%2Fcss%3Ffamily%3DSource%2BCode%2BPro;absoluteArcSize=1;" parent="1" vertex="1">
                    <mxGeometry x="1120" y="-747.5" width="230" height="95" as="geometry"/>
                </mxCell>
                <mxCell id="OTUqCdPUJppTRiebAdAl-68" style="edgeStyle=orthogonalEdgeStyle;rounded=0;orthogonalLoop=1;jettySize=auto;html=1;entryX=1;entryY=0.5;entryDx=0;entryDy=0;endArrow=none;endFill=0;strokeColor=#5E5E5E;fontFamily=Source Code Pro;fontSource=https%3A%2F%2Ffonts.googleapis.com%2Fcss%3Ffamily%3DSource%2BCode%2BPro;" parent="1" source="OTUqCdPUJppTRiebAdAl-67" target="OTUqCdPUJppTRiebAdAl-60" edge="1">
                    <mxGeometry relative="1" as="geometry"/>
                </mxCell>
                <mxCell id="OTUqCdPUJppTRiebAdAl-67" value="&lt;font color=&quot;#7d7d7d&quot; style=&quot;font-size: 12px&quot;&gt;The AnnonceController allow to send message in chat of all lobby&lt;/font&gt;" style="rounded=1;whiteSpace=wrap;html=1;shadow=0;glass=0;strokeWidth=1;gradientColor=none;strokeColor=#5E5E5E;fillColor=none;fontFamily=Source Code Pro;fontSource=https%3A%2F%2Ffonts.googleapis.com%2Fcss%3Ffamily%3DSource%2BCode%2BPro;absoluteArcSize=1;" parent="1" vertex="1">
                    <mxGeometry x="1120" y="-641" width="230" height="95" as="geometry"/>
                </mxCell>
                <mxCell id="OTUqCdPUJppTRiebAdAl-69" value="TwitchController" style="rounded=1;whiteSpace=wrap;html=1;shadow=0;glass=0;strokeColor=#f68712;strokeWidth=1;fontFamily=Source Code Pro;fontSource=https%3A%2F%2Ffonts.googleapis.com%2Fcss%3Ffamily%3DSource%2BCode%2BPro;fillColor=none;" parent="1" vertex="1">
                    <mxGeometry x="810" y="-829" width="121.25" height="29" as="geometry"/>
                </mxCell>
                <mxCell id="OTUqCdPUJppTRiebAdAl-70" value="FrontController" style="rounded=1;whiteSpace=wrap;html=1;shadow=0;glass=0;strokeColor=#f68712;strokeWidth=1;fontFamily=Source Code Pro;fontSource=https%3A%2F%2Ffonts.googleapis.com%2Fcss%3Ffamily%3DSource%2BCode%2BPro;fillColor=none;" parent="1" vertex="1">
                    <mxGeometry x="670" y="-829" width="120" height="29" as="geometry"/>
                </mxCell>
                <mxCell id="OTUqCdPUJppTRiebAdAl-71" value="InfoController" style="rounded=1;whiteSpace=wrap;html=1;shadow=0;glass=0;strokeColor=#f68712;strokeWidth=1;fontFamily=Source Code Pro;fontSource=https%3A%2F%2Ffonts.googleapis.com%2Fcss%3Ffamily%3DSource%2BCode%2BPro;fillColor=none;" parent="1" vertex="1">
                    <mxGeometry x="740" y="-751.75" width="120" height="29" as="geometry"/>
                </mxCell>
                <mxCell id="OTUqCdPUJppTRiebAdAl-72" value="ConnectController" style="rounded=1;whiteSpace=wrap;html=1;shadow=0;glass=0;strokeColor=#f68712;strokeWidth=1;fontFamily=Source Code Pro;fontSource=https%3A%2F%2Ffonts.googleapis.com%2Fcss%3Ffamily%3DSource%2BCode%2BPro;fillColor=none;" parent="1" vertex="1">
                    <mxGeometry x="660" y="-691.75" width="140" height="29" as="geometry"/>
                </mxCell>
                <mxCell id="OTUqCdPUJppTRiebAdAl-73" value="BadgeController" style="rounded=1;whiteSpace=wrap;html=1;shadow=0;glass=0;strokeColor=#f68712;strokeWidth=1;fontFamily=Source Code Pro;fontSource=https%3A%2F%2Ffonts.googleapis.com%2Fcss%3Ffamily%3DSource%2BCode%2BPro;fillColor=none;" parent="1" vertex="1">
                    <mxGeometry x="740" y="-600.5" width="120" height="29" as="geometry"/>
                </mxCell>
                <mxCell id="OTUqCdPUJppTRiebAdAl-75" style="edgeStyle=orthogonalEdgeStyle;rounded=1;orthogonalLoop=1;jettySize=auto;html=1;entryX=0;entryY=0.5;entryDx=0;entryDy=0;endArrow=none;endFill=0;strokeColor=#5E5E5E;fontFamily=Source Code Pro;fontSource=https%3A%2F%2Ffonts.googleapis.com%2Fcss%3Ffamily%3DSource%2BCode%2BPro;" parent="1" source="OTUqCdPUJppTRiebAdAl-74" target="OTUqCdPUJppTRiebAdAl-69" edge="1">
                    <mxGeometry relative="1" as="geometry">
                        <Array as="points">
                            <mxPoint x="801" y="-957"/>
                            <mxPoint x="801" y="-814"/>
                        </Array>
                    </mxGeometry>
                </mxCell>
                <mxCell id="OTUqCdPUJppTRiebAdAl-74" value="&lt;font color=&quot;#7d7d7d&quot; style=&quot;font-size: 12px&quot;&gt;The TwitchController will handle authentification with twitch&lt;/font&gt;" style="rounded=1;whiteSpace=wrap;html=1;shadow=0;glass=0;strokeWidth=1;gradientColor=none;strokeColor=#5E5E5E;fillColor=none;fontFamily=Source Code Pro;fontSource=https%3A%2F%2Ffonts.googleapis.com%2Fcss%3Ffamily%3DSource%2BCode%2BPro;absoluteArcSize=1;" parent="1" vertex="1">
                    <mxGeometry x="580" y="-994.5" width="210" height="74.5" as="geometry"/>
                </mxCell>
                <mxCell id="OTUqCdPUJppTRiebAdAl-77" style="edgeStyle=orthogonalEdgeStyle;rounded=1;orthogonalLoop=1;jettySize=auto;html=1;entryX=0;entryY=0.5;entryDx=0;entryDy=0;endArrow=none;endFill=0;strokeColor=#5E5E5E;fontFamily=Source Code Pro;fontSource=https%3A%2F%2Ffonts.googleapis.com%2Fcss%3Ffamily%3DSource%2BCode%2BPro;" parent="1" source="OTUqCdPUJppTRiebAdAl-76" target="OTUqCdPUJppTRiebAdAl-70" edge="1">
                    <mxGeometry relative="1" as="geometry"/>
                </mxCell>
                <mxCell id="OTUqCdPUJppTRiebAdAl-76" value="&lt;font color=&quot;#7d7d7d&quot; style=&quot;font-size: 12px&quot;&gt;The FrontController serve the ressource generated by the quasar frontend&lt;/font&gt;" style="rounded=1;whiteSpace=wrap;html=1;shadow=0;glass=0;strokeWidth=1;gradientColor=none;strokeColor=#5E5E5E;fillColor=none;fontFamily=Source Code Pro;fontSource=https%3A%2F%2Ffonts.googleapis.com%2Fcss%3Ffamily%3DSource%2BCode%2BPro;absoluteArcSize=1;" parent="1" vertex="1">
                    <mxGeometry x="360" y="-906.25" width="210" height="74.5" as="geometry"/>
                </mxCell>
                <mxCell id="OTUqCdPUJppTRiebAdAl-80" style="edgeStyle=orthogonalEdgeStyle;rounded=1;orthogonalLoop=1;jettySize=auto;html=1;entryX=0;entryY=0.5;entryDx=0;entryDy=0;fontFamily=Source Code Pro;fontSource=https%3A%2F%2Ffonts.googleapis.com%2Fcss%3Ffamily%3DSource%2BCode%2BPro;endArrow=none;endFill=0;strokeColor=#5E5E5E;" parent="1" source="OTUqCdPUJppTRiebAdAl-79" target="OTUqCdPUJppTRiebAdAl-71" edge="1">
                    <mxGeometry relative="1" as="geometry"/>
                </mxCell>
                <mxCell id="OTUqCdPUJppTRiebAdAl-79" value="&lt;font color=&quot;#7d7d7d&quot;&gt;The Info Controller provide various info about a lobby (state, type, slot, lang, ...)&lt;/font&gt;" style="rounded=1;whiteSpace=wrap;html=1;shadow=0;glass=0;strokeWidth=1;gradientColor=none;strokeColor=#5E5E5E;fillColor=none;fontFamily=Source Code Pro;fontSource=https%3A%2F%2Ffonts.googleapis.com%2Fcss%3Ffamily%3DSource%2BCode%2BPro;absoluteArcSize=1;" parent="1" vertex="1">
                    <mxGeometry x="360" y="-809.5" width="230" height="74.5" as="geometry"/>
                </mxCell>
                <mxCell id="OTUqCdPUJppTRiebAdAl-82" style="edgeStyle=orthogonalEdgeStyle;rounded=0;orthogonalLoop=1;jettySize=auto;html=1;entryX=0;entryY=0.5;entryDx=0;entryDy=0;fontFamily=Source Code Pro;fontSource=https%3A%2F%2Ffonts.googleapis.com%2Fcss%3Ffamily%3DSource%2BCode%2BPro;endArrow=none;endFill=0;strokeColor=#5E5E5E;" parent="1" source="OTUqCdPUJppTRiebAdAl-81" target="OTUqCdPUJppTRiebAdAl-72" edge="1">
                    <mxGeometry relative="1" as="geometry"/>
                </mxCell>
                <mxCell id="OTUqCdPUJppTRiebAdAl-81" value="&lt;font color=&quot;#7d7d7d&quot;&gt;The ConnectController dispatch connect, create request of lobby (doesn't handle twitch lobby,&lt;br&gt;TwitchController does)&lt;/font&gt;" style="rounded=1;whiteSpace=wrap;html=1;shadow=0;glass=0;strokeWidth=1;gradientColor=none;strokeColor=#5E5E5E;fillColor=none;fontFamily=Source Code Pro;fontSource=https%3A%2F%2Ffonts.googleapis.com%2Fcss%3Ffamily%3DSource%2BCode%2BPro;absoluteArcSize=1;" parent="1" vertex="1">
                    <mxGeometry x="360" y="-714.5" width="250" height="74.5" as="geometry"/>
                </mxCell>
                <mxCell id="OTUqCdPUJppTRiebAdAl-84" style="edgeStyle=orthogonalEdgeStyle;rounded=0;orthogonalLoop=1;jettySize=auto;html=1;entryX=0;entryY=0.5;entryDx=0;entryDy=0;fontFamily=Source Code Pro;fontSource=https%3A%2F%2Ffonts.googleapis.com%2Fcss%3Ffamily%3DSource%2BCode%2BPro;endArrow=none;endFill=0;strokeColor=#5E5E5E;" parent="1" source="OTUqCdPUJppTRiebAdAl-83" target="OTUqCdPUJppTRiebAdAl-73" edge="1">
                    <mxGeometry relative="1" as="geometry"/>
                </mxCell>
                <mxCell id="OTUqCdPUJppTRiebAdAl-83" value="&lt;font color=&quot;#7d7d7d&quot;&gt;The badgeController is used for github shields.io badge to display online players&lt;/font&gt;" style="rounded=1;whiteSpace=wrap;html=1;shadow=0;glass=0;strokeWidth=1;gradientColor=none;strokeColor=#5E5E5E;fillColor=none;fontFamily=Source Code Pro;fontSource=https%3A%2F%2Ffonts.googleapis.com%2Fcss%3Ffamily%3DSource%2BCode%2BPro;absoluteArcSize=1;" parent="1" vertex="1">
                    <mxGeometry x="360" y="-620" width="250" height="68" as="geometry"/>
                </mxCell>
                <mxCell id="3" value="" style="rounded=0;whiteSpace=wrap;html=1;fillColor=#222222;strokeColor=#f68712;shadow=0;glass=0;strokeWidth=3;fontFamily=Source Code Pro;fontSource=https%3A%2F%2Ffonts.googleapis.com%2Fcss%3Ffamily%3DSource%2BCode%2BPro;" vertex="1" parent="1">
                    <mxGeometry x="340" y="-440" width="1030" height="630" as="geometry"/>
                </mxCell>
                <mxCell id="4" value="&lt;font style=&quot;font-size: 24px&quot;&gt;Lobby&lt;/font&gt;" style="text;html=1;strokeColor=none;fillColor=none;align=center;verticalAlign=middle;whiteSpace=wrap;rounded=0;fontFamily=Source Code Pro;fontSource=https%3A%2F%2Ffonts.googleapis.com%2Fcss%3Ffamily%3DSource%2BCode%2BPro;" vertex="1" parent="1">
                    <mxGeometry x="825" y="-420" width="40" height="20" as="geometry"/>
                </mxCell>
                <mxCell id="16" style="edgeStyle=orthogonalEdgeStyle;rounded=1;orthogonalLoop=1;jettySize=auto;html=1;exitX=1;exitY=0.5;exitDx=0;exitDy=0;entryX=-0.017;entryY=0.161;entryDx=0;entryDy=0;fontFamily=Source Code Pro;fontSource=https%3A%2F%2Ffonts.googleapis.com%2Fcss%3Ffamily%3DSource%2BCode%2BPro;entryPerimeter=0;endArrow=none;endFill=0;strokeColor=#5E5E5E;" edge="1" parent="1" source="6" target="11">
                    <mxGeometry relative="1" as="geometry"/>
                </mxCell>
                <mxCell id="6" value="type" style="rounded=0;whiteSpace=wrap;html=1;shadow=0;glass=0;strokeColor=#f68712;strokeWidth=1;fontFamily=Source Code Pro;fontSource=https%3A%2F%2Ffonts.googleapis.com%2Fcss%3Ffamily%3DSource%2BCode%2BPro;fillColor=none;" vertex="1" parent="1">
                    <mxGeometry x="979" y="-390" width="100" height="40" as="geometry"/>
                </mxCell>
                <mxCell id="46" value="" style="edgeStyle=orthogonalEdgeStyle;rounded=1;orthogonalLoop=1;jettySize=auto;html=1;fontFamily=Source Code Pro;fontSource=https%3A%2F%2Ffonts.googleapis.com%2Fcss%3Ffamily%3DSource%2BCode%2BPro;endArrow=none;endFill=0;strokeColor=#5E5E5E;" edge="1" parent="1" source="7" target="45">
                    <mxGeometry relative="1" as="geometry"/>
                </mxCell>
                <mxCell id="7" value="GameLoop" style="rounded=1;whiteSpace=wrap;html=1;shadow=0;glass=0;strokeColor=#f68712;strokeWidth=1;fontFamily=Source Code Pro;fontSource=https%3A%2F%2Ffonts.googleapis.com%2Fcss%3Ffamily%3DSource%2BCode%2BPro;fillColor=none;" vertex="1" parent="1">
                    <mxGeometry x="412.5" y="-175" width="97.5" height="40" as="geometry"/>
                </mxCell>
                <mxCell id="20" style="edgeStyle=orthogonalEdgeStyle;rounded=1;orthogonalLoop=1;jettySize=auto;html=1;entryX=0;entryY=0.5;entryDx=0;entryDy=0;fontFamily=Source Code Pro;fontSource=https%3A%2F%2Ffonts.googleapis.com%2Fcss%3Ffamily%3DSource%2BCode%2BPro;endArrow=none;endFill=0;strokeColor=#5E5E5E;" edge="1" parent="1" source="8" target="19">
                    <mxGeometry relative="1" as="geometry"/>
                </mxCell>
                <mxCell id="8" value="totalPlayers" style="rounded=0;whiteSpace=wrap;html=1;shadow=0;glass=0;strokeColor=#f68712;strokeWidth=1;fontFamily=Source Code Pro;fontSource=https%3A%2F%2Ffonts.googleapis.com%2Fcss%3Ffamily%3DSource%2BCode%2BPro;fillColor=none;" vertex="1" parent="1">
                    <mxGeometry x="960" y="-175" width="100" height="40" as="geometry"/>
                </mxCell>
                <mxCell id="22" style="edgeStyle=orthogonalEdgeStyle;rounded=1;orthogonalLoop=1;jettySize=auto;html=1;entryX=0;entryY=0.5;entryDx=0;entryDy=0;fontFamily=Source Code Pro;fontSource=https%3A%2F%2Ffonts.googleapis.com%2Fcss%3Ffamily%3DSource%2BCode%2BPro;endArrow=none;endFill=0;strokeColor=#5E5E5E;" edge="1" parent="1" source="9" target="21">
                    <mxGeometry relative="1" as="geometry"/>
                </mxCell>
                <mxCell id="9" value="heartBeat" style="rounded=0;whiteSpace=wrap;html=1;shadow=0;glass=0;strokeColor=#f68712;strokeWidth=1;fontFamily=Source Code Pro;fontSource=https%3A%2F%2Ffonts.googleapis.com%2Fcss%3Ffamily%3DSource%2BCode%2BPro;fillColor=none;" vertex="1" parent="1">
                    <mxGeometry x="960" y="-85" width="100" height="40" as="geometry"/>
                </mxCell>
                <mxCell id="18" style="edgeStyle=orthogonalEdgeStyle;rounded=1;orthogonalLoop=1;jettySize=auto;html=1;entryX=0;entryY=0.5;entryDx=0;entryDy=0;fontFamily=Source Code Pro;fontSource=https%3A%2F%2Ffonts.googleapis.com%2Fcss%3Ffamily%3DSource%2BCode%2BPro;endArrow=none;endFill=0;strokeColor=#5E5E5E;" edge="1" parent="1" source="10" target="17">
                    <mxGeometry relative="1" as="geometry"/>
                </mxCell>
                <mxCell id="10" value="id" style="rounded=0;whiteSpace=wrap;html=1;shadow=0;glass=0;strokeColor=#f68712;strokeWidth=1;fontFamily=Source Code Pro;fontSource=https%3A%2F%2Ffonts.googleapis.com%2Fcss%3Ffamily%3DSource%2BCode%2BPro;fillColor=none;" vertex="1" parent="1">
                    <mxGeometry x="960" y="-290" width="100" height="40" as="geometry"/>
                </mxCell>
                <mxCell id="11" value="LobbyType" style="swimlane;fontStyle=0;childLayout=stackLayout;horizontal=1;startSize=26;horizontalStack=0;resizeParent=1;resizeParentMax=0;resizeLast=0;collapsible=1;marginBottom=0;rounded=1;fontFamily=Source Code Pro;fontSource=https%3A%2F%2Ffonts.googleapis.com%2Fcss%3Ffamily%3DSource%2BCode%2BPro;fillColor=#222222;swimlaneFillColor=#222222;strokeColor=#F68712;" vertex="1" parent="1">
                    <mxGeometry x="1161" y="-410" width="140" height="104" as="geometry">
                        <mxRectangle x="2251" y="-370" width="100" height="26" as="alternateBounds"/>
                    </mxGeometry>
                </mxCell>
                <mxCell id="12" value="Public" style="text;strokeColor=none;fillColor=none;align=center;verticalAlign=top;spacingLeft=4;spacingRight=4;overflow=hidden;rotatable=0;points=[[0,0.5],[1,0.5]];portConstraint=eastwest;fontFamily=Source Code Pro;fontSource=https%3A%2F%2Ffonts.googleapis.com%2Fcss%3Ffamily%3DSource%2BCode%2BPro;" vertex="1" parent="11">
                    <mxGeometry y="26" width="140" height="26" as="geometry"/>
                </mxCell>
                <mxCell id="13" value="Private" style="text;strokeColor=none;fillColor=none;align=center;verticalAlign=top;spacingLeft=4;spacingRight=4;overflow=hidden;rotatable=0;points=[[0,0.5],[1,0.5]];portConstraint=eastwest;fontFamily=Source Code Pro;fontSource=https%3A%2F%2Ffonts.googleapis.com%2Fcss%3Ffamily%3DSource%2BCode%2BPro;" vertex="1" parent="11">
                    <mxGeometry y="52" width="140" height="26" as="geometry"/>
                </mxCell>
                <mxCell id="14" value="Twitch" style="text;strokeColor=none;fillColor=none;align=center;verticalAlign=top;spacingLeft=4;spacingRight=4;overflow=hidden;rotatable=0;points=[[0,0.5],[1,0.5]];portConstraint=eastwest;fontFamily=Source Code Pro;fontSource=https%3A%2F%2Ffonts.googleapis.com%2Fcss%3Ffamily%3DSource%2BCode%2BPro;" vertex="1" parent="11">
                    <mxGeometry y="78" width="140" height="26" as="geometry"/>
                </mxCell>
                <mxCell id="17" value="&lt;font color=&quot;#7d7d7d&quot;&gt;The id that is used to find the lobby in the sorted lobbyList.&lt;br&gt;formatID return the string represention it.&lt;br&gt;&lt;/font&gt;" style="rounded=1;whiteSpace=wrap;html=1;shadow=0;glass=0;strokeWidth=1;gradientColor=none;strokeColor=#5E5E5E;fillColor=none;fontFamily=Source Code Pro;fontSource=https%3A%2F%2Ffonts.googleapis.com%2Fcss%3Ffamily%3DSource%2BCode%2BPro;absoluteArcSize=1;" vertex="1" parent="1">
                    <mxGeometry x="1090" y="-290" width="261" height="80" as="geometry"/>
                </mxCell>
                <mxCell id="19" value="&lt;font color=&quot;#7d7d7d&quot;&gt;The total number of players that the lobby has seen since his creation, it's used to assign an id to players used by the front (see player class)&lt;/font&gt;" style="rounded=1;whiteSpace=wrap;html=1;shadow=0;glass=0;strokeWidth=1;gradientColor=none;strokeColor=#5E5E5E;fillColor=none;fontFamily=Source Code Pro;fontSource=https%3A%2F%2Ffonts.googleapis.com%2Fcss%3Ffamily%3DSource%2BCode%2BPro;absoluteArcSize=1;" vertex="1" parent="1">
                    <mxGeometry x="1080" y="-200" width="271" height="90" as="geometry"/>
                </mxCell>
                <mxCell id="21" value="&lt;font color=&quot;#7d7d7d&quot;&gt;A 30 sec loop that ensure every player still play&lt;/font&gt;" style="rounded=1;whiteSpace=wrap;html=1;shadow=0;glass=0;strokeWidth=1;gradientColor=none;strokeColor=#5E5E5E;fillColor=none;fontFamily=Source Code Pro;fontSource=https%3A%2F%2Ffonts.googleapis.com%2Fcss%3Ffamily%3DSource%2BCode%2BPro;absoluteArcSize=1;" vertex="1" parent="1">
                    <mxGeometry x="1080" y="-90" width="271" height="50" as="geometry"/>
                </mxCell>
                <mxCell id="23" value="formatID" style="rounded=0;whiteSpace=wrap;html=1;shadow=0;glass=0;strokeColor=#f68712;strokeWidth=1;fontFamily=Source Code Pro;fontSource=https%3A%2F%2Ffonts.googleapis.com%2Fcss%3Ffamily%3DSource%2BCode%2BPro;fillColor=none;" vertex="1" parent="1">
                    <mxGeometry x="960" y="-250" width="100" height="40" as="geometry"/>
                </mxCell>
                <mxCell id="26" style="edgeStyle=orthogonalEdgeStyle;rounded=1;orthogonalLoop=1;jettySize=auto;html=1;entryX=0;entryY=0.5;entryDx=0;entryDy=0;fontFamily=Source Code Pro;fontSource=https%3A%2F%2Ffonts.googleapis.com%2Fcss%3Ffamily%3DSource%2BCode%2BPro;endArrow=none;endFill=0;strokeColor=#5E5E5E;" edge="1" parent="1" source="24" target="25">
                    <mxGeometry relative="1" as="geometry"/>
                </mxCell>
                <mxCell id="24" value="passwordHash" style="rounded=0;whiteSpace=wrap;html=1;shadow=0;glass=0;strokeColor=#f68712;strokeWidth=1;fontFamily=Source Code Pro;fontSource=https%3A%2F%2Ffonts.googleapis.com%2Fcss%3Ffamily%3DSource%2BCode%2BPro;fillColor=none;" vertex="1" parent="1">
                    <mxGeometry x="960" y="-10" width="100" height="40" as="geometry"/>
                </mxCell>
                <mxCell id="25" value="&lt;font color=&quot;#7d7d7d&quot;&gt;The password hash that used in connect()&lt;/font&gt;" style="rounded=1;whiteSpace=wrap;html=1;shadow=0;glass=0;strokeWidth=1;gradientColor=none;strokeColor=#5E5E5E;fillColor=none;fontFamily=Source Code Pro;fontSource=https%3A%2F%2Ffonts.googleapis.com%2Fcss%3Ffamily%3DSource%2BCode%2BPro;absoluteArcSize=1;" vertex="1" parent="1">
                    <mxGeometry x="1080" y="-15" width="271" height="50" as="geometry"/>
                </mxCell>
                <mxCell id="30" value="" style="edgeStyle=orthogonalEdgeStyle;rounded=1;orthogonalLoop=1;jettySize=auto;html=1;fontFamily=Source Code Pro;fontSource=https%3A%2F%2Ffonts.googleapis.com%2Fcss%3Ffamily%3DSource%2BCode%2BPro;endArrow=none;endFill=0;strokeColor=#5E5E5E;" edge="1" parent="1" target="28">
                    <mxGeometry relative="1" as="geometry">
                        <mxPoint x="1050" y="80" as="sourcePoint"/>
                    </mxGeometry>
                </mxCell>
                <mxCell id="28" value="&lt;font color=&quot;#7d7d7d&quot;&gt;The Lang used for the wikipedia api. &lt;br&gt;Add yours in config/Lang.hx enum&lt;br&gt;&lt;/font&gt;" style="rounded=1;whiteSpace=wrap;html=1;shadow=0;glass=0;strokeWidth=1;gradientColor=none;strokeColor=#5E5E5E;fillColor=none;fontFamily=Source Code Pro;fontSource=https%3A%2F%2Ffonts.googleapis.com%2Fcss%3Ffamily%3DSource%2BCode%2BPro;absoluteArcSize=1;" vertex="1" parent="1">
                    <mxGeometry x="1070" y="55" width="281" height="50" as="geometry"/>
                </mxCell>
                <mxCell id="31" value="language" style="rounded=0;whiteSpace=wrap;html=1;shadow=0;glass=0;strokeColor=#f68712;strokeWidth=1;fontFamily=Source Code Pro;fontSource=https%3A%2F%2Ffonts.googleapis.com%2Fcss%3Ffamily%3DSource%2BCode%2BPro;fillColor=none;" vertex="1" parent="1">
                    <mxGeometry x="960" y="60" width="90" height="40" as="geometry"/>
                </mxCell>
                <mxCell id="34" style="edgeStyle=orthogonalEdgeStyle;rounded=1;orthogonalLoop=1;jettySize=auto;html=1;entryX=0;entryY=0.5;entryDx=0;entryDy=0;fontFamily=Source Code Pro;fontSource=https%3A%2F%2Ffonts.googleapis.com%2Fcss%3Ffamily%3DSource%2BCode%2BPro;endArrow=none;endFill=0;strokeColor=#5E5E5E;" edge="1" parent="1" source="32" target="33">
                    <mxGeometry relative="1" as="geometry"/>
                </mxCell>
                <mxCell id="32" value="players []" style="rounded=1;whiteSpace=wrap;html=1;shadow=0;glass=0;strokeColor=#f68712;strokeWidth=1;fontFamily=Source Code Pro;fontSource=https%3A%2F%2Ffonts.googleapis.com%2Fcss%3Ffamily%3DSource%2BCode%2BPro;gradientColor=#ffffff;fillColor=none;" vertex="1" parent="1">
                    <mxGeometry x="412.5" y="-240" width="95" height="40" as="geometry"/>
                </mxCell>
                <mxCell id="33" value="&lt;font color=&quot;#7d7d7d&quot;&gt;An array that contain connected player&lt;br&gt;&lt;/font&gt;" style="rounded=1;whiteSpace=wrap;html=1;shadow=0;glass=0;strokeWidth=1;gradientColor=none;strokeColor=#5E5E5E;fillColor=none;fontFamily=Source Code Pro;fontSource=https%3A%2F%2Ffonts.googleapis.com%2Fcss%3Ffamily%3DSource%2BCode%2BPro;absoluteArcSize=1;" vertex="1" parent="1">
                    <mxGeometry x="530" y="-245" width="290" height="50" as="geometry"/>
                </mxCell>
                <mxCell id="37" value="owner" style="rounded=0;whiteSpace=wrap;html=1;shadow=0;glass=0;strokeColor=#f68712;strokeWidth=1;fontFamily=Source Code Pro;fontSource=https%3A%2F%2Ffonts.googleapis.com%2Fcss%3Ffamily%3DSource%2BCode%2BPro;fillColor=none;" vertex="1" parent="1">
                    <mxGeometry x="407.5" y="-310" width="100" height="40" as="geometry"/>
                </mxCell>
                <mxCell id="39" style="edgeStyle=orthogonalEdgeStyle;rounded=1;orthogonalLoop=1;jettySize=auto;html=1;entryX=1;entryY=0.5;entryDx=0;entryDy=0;fontFamily=Source Code Pro;fontSource=https%3A%2F%2Ffonts.googleapis.com%2Fcss%3Ffamily%3DSource%2BCode%2BPro;endArrow=none;endFill=0;strokeColor=#5E5E5E;" edge="1" parent="1" source="38">
                    <mxGeometry relative="1" as="geometry">
                        <mxPoint x="507.5" y="-330" as="targetPoint"/>
                    </mxGeometry>
                </mxCell>
                <mxCell id="38" value="&lt;font color=&quot;#7d7d7d&quot;&gt;The id of the owner of the lobby&lt;br&gt;&lt;/font&gt;" style="rounded=1;whiteSpace=wrap;html=1;shadow=0;glass=0;strokeWidth=1;gradientColor=none;strokeColor=#5E5E5E;fillColor=none;fontFamily=Source Code Pro;fontSource=https%3A%2F%2Ffonts.googleapis.com%2Fcss%3Ffamily%3DSource%2BCode%2BPro;absoluteArcSize=1;" vertex="1" parent="1">
                    <mxGeometry x="527.5" y="-350" width="281" height="40" as="geometry"/>
                </mxCell>
                <mxCell id="41" style="edgeStyle=orthogonalEdgeStyle;rounded=1;orthogonalLoop=1;jettySize=auto;html=1;entryX=1;entryY=0.5;entryDx=0;entryDy=0;fontFamily=Source Code Pro;fontSource=https%3A%2F%2Ffonts.googleapis.com%2Fcss%3Ffamily%3DSource%2BCode%2BPro;endArrow=none;endFill=0;strokeColor=#5E5E5E;" edge="1" parent="1" source="40" target="37">
                    <mxGeometry relative="1" as="geometry"/>
                </mxCell>
                <mxCell id="40" value="&lt;font color=&quot;#7d7d7d&quot;&gt;The player who is the owner of the lobby&lt;br&gt;&lt;/font&gt;" style="rounded=1;whiteSpace=wrap;html=1;shadow=0;glass=0;strokeWidth=1;gradientColor=none;strokeColor=#5E5E5E;fillColor=none;fontFamily=Source Code Pro;fontSource=https%3A%2F%2Ffonts.googleapis.com%2Fcss%3Ffamily%3DSource%2BCode%2BPro;absoluteArcSize=1;" vertex="1" parent="1">
                    <mxGeometry x="527.5" y="-310" width="281" height="40" as="geometry"/>
                </mxCell>
                <mxCell id="44" value="" style="edgeStyle=orthogonalEdgeStyle;rounded=1;orthogonalLoop=1;jettySize=auto;html=1;fontFamily=Source Code Pro;fontSource=https%3A%2F%2Ffonts.googleapis.com%2Fcss%3Ffamily%3DSource%2BCode%2BPro;endArrow=none;endFill=0;strokeColor=#5E5E5E;" edge="1" parent="1" source="42" target="43">
                    <mxGeometry relative="1" as="geometry"/>
                </mxCell>
                <mxCell id="42" value="&lt;font color=&quot;#f68712&quot;&gt;lobbyList&lt;/font&gt;" style="rounded=0;whiteSpace=wrap;html=1;shadow=0;glass=0;strokeColor=#f68712;strokeWidth=1;fontFamily=Source Code Pro;fontSource=https%3A%2F%2Ffonts.googleapis.com%2Fcss%3Ffamily%3DSource%2BCode%2BPro;fillColor=none;" vertex="1" parent="1">
                    <mxGeometry x="407.5" y="-410" width="100" height="40" as="geometry"/>
                </mxCell>
                <mxCell id="43" value="&lt;font color=&quot;#7d7d7d&quot;&gt;An array of all the lobby&lt;br&gt;&lt;/font&gt;" style="rounded=1;whiteSpace=wrap;html=1;shadow=0;glass=0;strokeWidth=1;gradientColor=none;strokeColor=#5E5E5E;fillColor=none;fontFamily=Source Code Pro;fontSource=https%3A%2F%2Ffonts.googleapis.com%2Fcss%3Ffamily%3DSource%2BCode%2BPro;absoluteArcSize=1;" vertex="1" parent="1">
                    <mxGeometry x="530" y="-410" width="230" height="40" as="geometry"/>
                </mxCell>
                <mxCell id="45" value="&lt;font color=&quot;#7d7d7d&quot;&gt;The current gameLoop of the lobby&lt;br&gt;&lt;/font&gt;" style="rounded=1;whiteSpace=wrap;html=1;shadow=0;glass=0;strokeWidth=1;gradientColor=none;strokeColor=#5E5E5E;fillColor=none;fontFamily=Source Code Pro;fontSource=https%3A%2F%2Ffonts.googleapis.com%2Fcss%3Ffamily%3DSource%2BCode%2BPro;absoluteArcSize=1;" vertex="1" parent="1">
                    <mxGeometry x="530" y="-180" width="281" height="50" as="geometry"/>
                </mxCell>
                <mxCell id="47" value="&lt;div style=&quot;color: rgb(212 , 212 , 212) ; font-family: &amp;#34;consolas&amp;#34; , &amp;#34;courier new&amp;#34; , monospace ; font-size: 14px ; line-height: 19px&quot;&gt;&lt;span style=&quot;color: rgb(220 , 220 , 170)&quot;&gt;giveId&lt;/span&gt;()&lt;/div&gt;" style="shape=hexagon;perimeter=hexagonPerimeter2;whiteSpace=wrap;html=1;fixedSize=1;rounded=1;labelBackgroundColor=#222222;fontFamily=Source Code Pro;fontSource=https%3A%2F%2Ffonts.googleapis.com%2Fcss%3Ffamily%3DSource%2BCode%2BPro;strokeColor=#F68712;fillColor=#222222;align=center;" vertex="1" parent="1">
                    <mxGeometry x="387.5" y="-110" width="120" height="45" as="geometry"/>
                </mxCell>
                <mxCell id="52" value="" style="edgeStyle=orthogonalEdgeStyle;rounded=1;orthogonalLoop=1;jettySize=auto;html=1;fontFamily=Source Code Pro;fontSource=https%3A%2F%2Ffonts.googleapis.com%2Fcss%3Ffamily%3DSource%2BCode%2BPro;endArrow=none;endFill=0;strokeColor=#5E5E5E;" edge="1" parent="1" source="48" target="47">
                    <mxGeometry relative="1" as="geometry"/>
                </mxCell>
                <mxCell id="48" value="&lt;font color=&quot;#7d7d7d&quot;&gt;Give the lobby an unused id and insert it the lobbyList&lt;br&gt;&lt;/font&gt;" style="rounded=1;whiteSpace=wrap;html=1;shadow=0;glass=0;strokeWidth=1;gradientColor=none;strokeColor=#5E5E5E;fillColor=none;fontFamily=Source Code Pro;fontSource=https%3A%2F%2Ffonts.googleapis.com%2Fcss%3Ffamily%3DSource%2BCode%2BPro;absoluteArcSize=1;" vertex="1" parent="1">
                    <mxGeometry x="570" y="-112.5" width="371.25" height="50" as="geometry"/>
                </mxCell>
                <mxCell id="55" value="" style="edgeStyle=orthogonalEdgeStyle;rounded=1;orthogonalLoop=1;jettySize=auto;html=1;fontFamily=Source Code Pro;fontSource=https%3A%2F%2Ffonts.googleapis.com%2Fcss%3Ffamily%3DSource%2BCode%2BPro;endArrow=none;endFill=0;strokeColor=#5E5E5E;" edge="1" parent="1" source="53" target="54">
                    <mxGeometry relative="1" as="geometry"/>
                </mxCell>
                <mxCell id="53" value="&lt;div style=&quot;color: rgb(212 , 212 , 212) ; font-family: &amp;#34;consolas&amp;#34; , &amp;#34;courier new&amp;#34; , monospace ; font-size: 14px ; line-height: 19px&quot;&gt;&lt;span style=&quot;color: rgb(220 , 220 , 170)&quot;&gt;checkIdUsed&lt;/span&gt;(&lt;span style=&quot;color: rgb(156 , 220 , 254)&quot;&gt;id&lt;/span&gt;:&lt;span style=&quot;color: rgb(78 , 201 , 176)&quot;&gt;Int&lt;/span&gt;):&lt;span style=&quot;color: rgb(78 , 201 , 176)&quot;&gt;Int&lt;/span&gt;&lt;/div&gt;" style="shape=hexagon;perimeter=hexagonPerimeter2;whiteSpace=wrap;html=1;fixedSize=1;rounded=1;labelBackgroundColor=#222222;fontFamily=Source Code Pro;fontSource=https%3A%2F%2Ffonts.googleapis.com%2Fcss%3Ffamily%3DSource%2BCode%2BPro;strokeColor=#F68712;fillColor=#222222;align=center;" vertex="1" parent="1">
                    <mxGeometry x="346.25" y="-65" width="202.5" height="45" as="geometry"/>
                </mxCell>
                <mxCell id="54" value="&lt;font color=&quot;#7d7d7d&quot;&gt;Check if the given id is used and return the position where it should be added in the list.&lt;br&gt;Return -1 if the id is already used.&lt;br&gt;&lt;/font&gt;" style="rounded=1;whiteSpace=wrap;html=1;shadow=0;glass=0;strokeWidth=1;gradientColor=none;strokeColor=#5E5E5E;fillColor=none;fontFamily=Source Code Pro;fontSource=https%3A%2F%2Ffonts.googleapis.com%2Fcss%3Ffamily%3DSource%2BCode%2BPro;absoluteArcSize=1;" vertex="1" parent="1">
                    <mxGeometry x="570" y="-62.5" width="371.25" height="62.5" as="geometry"/>
                </mxCell>
                <mxCell id="56" value="&lt;div style=&quot;color: rgb(212 , 212 , 212) ; font-family: &amp;#34;consolas&amp;#34; , &amp;#34;courier new&amp;#34; , monospace ; font-size: 14px ; line-height: 19px&quot;&gt;&lt;div style=&quot;font-family: &amp;#34;consolas&amp;#34; , &amp;#34;courier new&amp;#34; , monospace ; line-height: 19px&quot;&gt;&lt;span style=&quot;color: rgb(220 , 220 , 170)&quot;&gt;find&lt;/span&gt;(&lt;span style=&quot;color: rgb(156 , 220 , 254)&quot;&gt;id&lt;/span&gt;:&lt;span style=&quot;color: rgb(78 , 201 , 176)&quot;&gt;Int&lt;/span&gt;):&lt;span style=&quot;color: rgb(78 , 201 , 176)&quot;&gt;Lobby&lt;/span&gt;&lt;/div&gt;&lt;/div&gt;" style="shape=hexagon;perimeter=hexagonPerimeter2;whiteSpace=wrap;html=1;fixedSize=1;rounded=1;labelBackgroundColor=#222222;fontFamily=Source Code Pro;fontSource=https%3A%2F%2Ffonts.googleapis.com%2Fcss%3Ffamily%3DSource%2BCode%2BPro;strokeColor=#F68712;fillColor=#222222;align=center;" vertex="1" parent="1">
                    <mxGeometry x="360" y="10" width="202.5" height="45" as="geometry"/>
                </mxCell>
                <mxCell id="58" value="" style="edgeStyle=orthogonalEdgeStyle;rounded=1;orthogonalLoop=1;jettySize=auto;html=1;fontFamily=Source Code Pro;fontSource=https%3A%2F%2Ffonts.googleapis.com%2Fcss%3Ffamily%3DSource%2BCode%2BPro;endArrow=none;endFill=0;strokeColor=#5E5E5E;" edge="1" parent="1" source="57" target="56">
                    <mxGeometry relative="1" as="geometry"/>
                </mxCell>
                <mxCell id="57" value="&lt;font color=&quot;#7d7d7d&quot;&gt;Search a lobby by his id.&lt;br&gt;Throw connect error if not found.&lt;br&gt;&lt;/font&gt;" style="rounded=1;whiteSpace=wrap;html=1;shadow=0;glass=0;strokeWidth=1;gradientColor=none;strokeColor=#5E5E5E;fillColor=none;fontFamily=Source Code Pro;fontSource=https%3A%2F%2Ffonts.googleapis.com%2Fcss%3Ffamily%3DSource%2BCode%2BPro;absoluteArcSize=1;" vertex="1" parent="1">
                    <mxGeometry x="630" y="13.75" width="300" height="37.5" as="geometry"/>
                </mxCell>
                <mxCell id="59" value="&lt;div style=&quot;color: rgb(212 , 212 , 212) ; font-family: &amp;#34;consolas&amp;#34; , &amp;#34;courier new&amp;#34; , monospace ; font-size: 14px ; line-height: 19px&quot;&gt;&lt;div style=&quot;font-family: &amp;#34;consolas&amp;#34; , &amp;#34;courier new&amp;#34; , monospace ; line-height: 19px&quot;&gt;&lt;div style=&quot;font-family: &amp;#34;consolas&amp;#34; , &amp;#34;courier new&amp;#34; , monospace ; line-height: 19px&quot;&gt;&lt;span style=&quot;color: rgb(220 , 220 , 170)&quot;&gt;addPlayer&lt;/span&gt;(&lt;span style=&quot;color: rgb(156 , 220 , 254)&quot;&gt;player&lt;/span&gt;:&lt;span style=&quot;color: rgb(78 , 201 , 176)&quot;&gt;Player&lt;/span&gt;)&lt;/div&gt;&lt;/div&gt;&lt;/div&gt;" style="shape=hexagon;perimeter=hexagonPerimeter2;whiteSpace=wrap;html=1;fixedSize=1;rounded=1;labelBackgroundColor=#222222;fontFamily=Source Code Pro;fontSource=https%3A%2F%2Ffonts.googleapis.com%2Fcss%3Ffamily%3DSource%2BCode%2BPro;strokeColor=#F68712;fillColor=#222222;align=center;" vertex="1" parent="1">
                    <mxGeometry x="350" y="70" width="214.5" height="45" as="geometry"/>
                </mxCell>
                <mxCell id="62" value="" style="edgeStyle=orthogonalEdgeStyle;rounded=1;orthogonalLoop=1;jettySize=auto;html=1;fontFamily=Source Code Pro;fontSource=https%3A%2F%2Ffonts.googleapis.com%2Fcss%3Ffamily%3DSource%2BCode%2BPro;endArrow=none;endFill=0;strokeColor=#5E5E5E;" edge="1" parent="1" source="60" target="59">
                    <mxGeometry relative="1" as="geometry"/>
                </mxCell>
                <mxCell id="60" value="&lt;font color=&quot;#7d7d7d&quot;&gt;Push the player to players, give him an id and add a kick event that trigger if he don't join within 30sec&lt;br&gt;&lt;/font&gt;" style="rounded=1;whiteSpace=wrap;html=1;shadow=0;glass=0;strokeWidth=1;gradientColor=none;strokeColor=#5E5E5E;fillColor=none;fontFamily=Source Code Pro;fontSource=https%3A%2F%2Ffonts.googleapis.com%2Fcss%3Ffamily%3DSource%2BCode%2BPro;absoluteArcSize=1;" vertex="1" parent="1">
                    <mxGeometry x="630" y="63.75" width="300" height="56.25" as="geometry"/>
                </mxCell>
                <mxCell id="65" value="ownerId" style="rounded=0;whiteSpace=wrap;html=1;shadow=0;glass=0;strokeColor=#f68712;strokeWidth=1;fontFamily=Source Code Pro;fontSource=https%3A%2F%2Ffonts.googleapis.com%2Fcss%3Ffamily%3DSource%2BCode%2BPro;fillColor=none;" vertex="1" parent="1">
                    <mxGeometry x="407.5" y="-350" width="100" height="40" as="geometry"/>
                </mxCell>
            </root>
        </mxGraphModel>
    </diagram>
</mxfile>